<?xml version="1.0" encoding="UTF-8"?>
<!DOCTYPE svg PUBLIC "-//W3C//DTD SVG 1.1//EN" "http://www.w3.org/Graphics/SVG/1.1/DTD/svg11.dtd">
<!-- Creator: CorelDRAW 2021.5 -->
<svg xmlns="http://www.w3.org/2000/svg" xml:space="preserve" width="51.4428mm" height="51.4427mm" version="1.1" style="shape-rendering:geometricPrecision; text-rendering:geometricPrecision; image-rendering:optimizeQuality; fill-rule:evenodd; clip-rule:evenodd"
viewBox="0 0 589.66 589.66"
 xmlns:xlink="http://www.w3.org/1999/xlink"
 xmlns:xodm="http://www.corel.com/coreldraw/odm/2003">
 <defs>
  <style type="text/css">
   <![CDATA[
    .str0 {stroke:white;stroke-width:36.39;stroke-miterlimit:22.9256}
    .fil0 {fill:#2C2C2C}
   ]]>
  </style>
 </defs>
 <g id="Layer_x0020_1">
  <metadata id="CorelCorpID_0Corel-Layer"/>
  <path id="Path_23422" class="fil0 str0" d="M294.82 18.2c-152.74,0 -276.62,123.88 -276.62,276.64 0,152.75 123.88,276.63 276.64,276.63 152.76,0 276.64,-123.88 276.64,-276.63 -0,-152.75 -123.89,-276.64 -276.65,-276.64l0 0zm0 82.72c0,0 0.01,0 0.01,0 50.53,0 91.5,40.98 91.5,91.5 0,50.53 -40.98,91.5 -91.5,91.5 -50.53,0 -91.5,-40.98 -91.5,-91.5 -0,-50.52 40.97,-91.49 91.48,-91.5l0 -0zm-0.06 398.23c-0.08,-0 -0.15,-0 -0.23,-0 -48.38,0 -95.23,-17.3 -131.99,-48.76 -8.66,-7.39 -13.67,-18.23 -13.67,-29.63 0.01,-50.95 41.34,-92.26 92.28,-92.26 0.15,0 0.3,0 0.45,0l106.47 0c0.13,-0 0.3,-0 0.44,-0 50.88,0 92.15,41.27 92.15,92.15 0,0.03 0,0.08 0,0.11 0,0 0,0.01 0,0.01 0,11.39 -5,22.21 -13.67,29.6 -36.76,31.45 -83.59,48.77 -131.98,48.77 -0.07,0 -0.17,0 -0.25,0l-0 0z" data-name="Path 23422"/>
 </g>
</svg>
