<svg xmlns="http://www.w3.org/2000/svg" version="1.1" xmlns:xlink="http://www.w3.org/1999/xlink" xmlns:svgjs="http://svgjs.dev/svgjs" viewBox="0 0 800 800" opacity="1"><defs><linearGradient gradientTransform="rotate(270)" x1="50%" y1="0%" x2="50%" y2="100%" id="sssquiggly-grad"><stop stop-color="hsla(206, 83%, 55%, 1.00)" stop-opacity="1" offset="0%"></stop><stop stop-color="#030024ff" stop-opacity="1" offset="100%"></stop></linearGradient></defs><g stroke-width="3" stroke="url(#sssquiggly-grad)" fill="none" stroke-linecap="round" transform="matrix(1,0,0,1,-5,205.03514289855957)"><path d="M10,10C26.435185185185183,10.416666666666666,53.93518518518518,16.791666666666668,88.88888888888889,12C123.84259259259258,7.208333333333333,140.74074074074073,-14.458333333333334,177.77777777777777,-13C214.8148148148148,-11.541666666666666,229.6296296296296,16.708333333333332,266.66666666666663,19C303.7037037037037,21.291666666666668,318.5185185185185,-3.4583333333333335,355.55555555555554,-2C392.5925925925926,-0.5416666666666665,407.40740740740745,27.458333333333332,444.44444444444446,26C481.48148148148147,24.541666666666668,496.29629629629625,-9.416666666666666,533.3333333333333,-9C570.3703703703703,-8.583333333333334,585.1851851851851,24.875,622.2222222222222,28C659.2592592592592,31.125,674.074074074074,5.791666666666667,711.1111111111111,6C748.1481481481482,6.208333333333333,781.4814814814815,24.208333333333332,800,29"></path><path d="M10,10C26.435185185185183,10.416666666666666,53.93518518518518,16.791666666666668,88.88888888888889,12C123.84259259259258,7.208333333333333,140.74074074074073,-14.458333333333334,177.77777777777777,-13C214.8148148148148,-11.541666666666666,229.6296296296296,16.708333333333332,266.66666666666663,19C303.7037037037037,21.291666666666668,318.5185185185185,-3.4583333333333335,355.55555555555554,-2C392.5925925925926,-0.5416666666666665,407.40740740740745,27.458333333333332,444.44444444444446,26C481.48148148148147,24.541666666666668,496.29629629629625,-9.416666666666666,533.3333333333333,-9C570.3703703703703,-8.583333333333334,585.1851851851851,24.875,622.2222222222222,28C659.2592592592592,31.125,674.074074074074,5.791666666666667,711.1111111111111,6C748.1481481481482,6.208333333333333,781.4814814814815,24.208333333333332,800,29" transform="matrix(1,0,0,1,0,374)"></path><path d="M10,10C26.435185185185183,10.416666666666666,53.93518518518518,16.791666666666668,88.88888888888889,12C123.84259259259258,7.208333333333333,140.74074074074073,-14.458333333333334,177.77777777777777,-13C214.8148148148148,-11.541666666666666,229.6296296296296,16.708333333333332,266.66666666666663,19C303.7037037037037,21.291666666666668,318.5185185185185,-3.4583333333333335,355.55555555555554,-2C392.5925925925926,-0.5416666666666665,407.40740740740745,27.458333333333332,444.44444444444446,26C481.48148148148147,24.541666666666668,496.29629629629625,-9.416666666666666,533.3333333333333,-9C570.3703703703703,-8.583333333333334,585.1851851851851,24.875,622.2222222222222,28C659.2592592592592,31.125,674.074074074074,5.791666666666667,711.1111111111111,6C748.1481481481482,6.208333333333333,781.4814814814815,24.208333333333332,800,29" transform="matrix(1,0,0,1,0,340)"></path><path d="M10,10C26.435185185185183,10.416666666666666,53.93518518518518,16.791666666666668,88.88888888888889,12C123.84259259259258,7.208333333333333,140.74074074074073,-14.458333333333334,177.77777777777777,-13C214.8148148148148,-11.541666666666666,229.6296296296296,16.708333333333332,266.66666666666663,19C303.7037037037037,21.291666666666668,318.5185185185185,-3.4583333333333335,355.55555555555554,-2C392.5925925925926,-0.5416666666666665,407.40740740740745,27.458333333333332,444.44444444444446,26C481.48148148148147,24.541666666666668,496.29629629629625,-9.416666666666666,533.3333333333333,-9C570.3703703703703,-8.583333333333334,585.1851851851851,24.875,622.2222222222222,28C659.2592592592592,31.125,674.074074074074,5.791666666666667,711.1111111111111,6C748.1481481481482,6.208333333333333,781.4814814814815,24.208333333333332,800,29" transform="matrix(1,0,0,1,0,306)"></path><path d="M10,10C26.435185185185183,10.416666666666666,53.93518518518518,16.791666666666668,88.88888888888889,12C123.84259259259258,7.208333333333333,140.74074074074073,-14.458333333333334,177.77777777777777,-13C214.8148148148148,-11.541666666666666,229.6296296296296,16.708333333333332,266.66666666666663,19C303.7037037037037,21.291666666666668,318.5185185185185,-3.4583333333333335,355.55555555555554,-2C392.5925925925926,-0.5416666666666665,407.40740740740745,27.458333333333332,444.44444444444446,26C481.48148148148147,24.541666666666668,496.29629629629625,-9.416666666666666,533.3333333333333,-9C570.3703703703703,-8.583333333333334,585.1851851851851,24.875,622.2222222222222,28C659.2592592592592,31.125,674.074074074074,5.791666666666667,711.1111111111111,6C748.1481481481482,6.208333333333333,781.4814814814815,24.208333333333332,800,29" transform="matrix(1,0,0,1,0,272)"></path><path d="M10,10C26.435185185185183,10.416666666666666,53.93518518518518,16.791666666666668,88.88888888888889,12C123.84259259259258,7.208333333333333,140.74074074074073,-14.458333333333334,177.77777777777777,-13C214.8148148148148,-11.541666666666666,229.6296296296296,16.708333333333332,266.66666666666663,19C303.7037037037037,21.291666666666668,318.5185185185185,-3.4583333333333335,355.55555555555554,-2C392.5925925925926,-0.5416666666666665,407.40740740740745,27.458333333333332,444.44444444444446,26C481.48148148148147,24.541666666666668,496.29629629629625,-9.416666666666666,533.3333333333333,-9C570.3703703703703,-8.583333333333334,585.1851851851851,24.875,622.2222222222222,28C659.2592592592592,31.125,674.074074074074,5.791666666666667,711.1111111111111,6C748.1481481481482,6.208333333333333,781.4814814814815,24.208333333333332,800,29" transform="matrix(1,0,0,1,0,238)"></path><path d="M10,10C26.435185185185183,10.416666666666666,53.93518518518518,16.791666666666668,88.88888888888889,12C123.84259259259258,7.208333333333333,140.74074074074073,-14.458333333333334,177.77777777777777,-13C214.8148148148148,-11.541666666666666,229.6296296296296,16.708333333333332,266.66666666666663,19C303.7037037037037,21.291666666666668,318.5185185185185,-3.4583333333333335,355.55555555555554,-2C392.5925925925926,-0.5416666666666665,407.40740740740745,27.458333333333332,444.44444444444446,26C481.48148148148147,24.541666666666668,496.29629629629625,-9.416666666666666,533.3333333333333,-9C570.3703703703703,-8.583333333333334,585.1851851851851,24.875,622.2222222222222,28C659.2592592592592,31.125,674.074074074074,5.791666666666667,711.1111111111111,6C748.1481481481482,6.208333333333333,781.4814814814815,24.208333333333332,800,29" transform="matrix(1,0,0,1,0,204)"></path><path d="M10,10C26.435185185185183,10.416666666666666,53.93518518518518,16.791666666666668,88.88888888888889,12C123.84259259259258,7.208333333333333,140.74074074074073,-14.458333333333334,177.77777777777777,-13C214.8148148148148,-11.541666666666666,229.6296296296296,16.708333333333332,266.66666666666663,19C303.7037037037037,21.291666666666668,318.5185185185185,-3.4583333333333335,355.55555555555554,-2C392.5925925925926,-0.5416666666666665,407.40740740740745,27.458333333333332,444.44444444444446,26C481.48148148148147,24.541666666666668,496.29629629629625,-9.416666666666666,533.3333333333333,-9C570.3703703703703,-8.583333333333334,585.1851851851851,24.875,622.2222222222222,28C659.2592592592592,31.125,674.074074074074,5.791666666666667,711.1111111111111,6C748.1481481481482,6.208333333333333,781.4814814814815,24.208333333333332,800,29" transform="matrix(1,0,0,1,0,170)"></path><path d="M10,10C26.435185185185183,10.416666666666666,53.93518518518518,16.791666666666668,88.88888888888889,12C123.84259259259258,7.208333333333333,140.74074074074073,-14.458333333333334,177.77777777777777,-13C214.8148148148148,-11.541666666666666,229.6296296296296,16.708333333333332,266.66666666666663,19C303.7037037037037,21.291666666666668,318.5185185185185,-3.4583333333333335,355.55555555555554,-2C392.5925925925926,-0.5416666666666665,407.40740740740745,27.458333333333332,444.44444444444446,26C481.48148148148147,24.541666666666668,496.29629629629625,-9.416666666666666,533.3333333333333,-9C570.3703703703703,-8.583333333333334,585.1851851851851,24.875,622.2222222222222,28C659.2592592592592,31.125,674.074074074074,5.791666666666667,711.1111111111111,6C748.1481481481482,6.208333333333333,781.4814814814815,24.208333333333332,800,29" transform="matrix(1,0,0,1,0,136)"></path><path d="M10,10C26.435185185185183,10.416666666666666,53.93518518518518,16.791666666666668,88.88888888888889,12C123.84259259259258,7.208333333333333,140.74074074074073,-14.458333333333334,177.77777777777777,-13C214.8148148148148,-11.541666666666666,229.6296296296296,16.708333333333332,266.66666666666663,19C303.7037037037037,21.291666666666668,318.5185185185185,-3.4583333333333335,355.55555555555554,-2C392.5925925925926,-0.5416666666666665,407.40740740740745,27.458333333333332,444.44444444444446,26C481.48148148148147,24.541666666666668,496.29629629629625,-9.416666666666666,533.3333333333333,-9C570.3703703703703,-8.583333333333334,585.1851851851851,24.875,622.2222222222222,28C659.2592592592592,31.125,674.074074074074,5.791666666666667,711.1111111111111,6C748.1481481481482,6.208333333333333,781.4814814814815,24.208333333333332,800,29" transform="matrix(1,0,0,1,0,102)"></path><path d="M10,10C26.435185185185183,10.416666666666666,53.93518518518518,16.791666666666668,88.88888888888889,12C123.84259259259258,7.208333333333333,140.74074074074073,-14.458333333333334,177.77777777777777,-13C214.8148148148148,-11.541666666666666,229.6296296296296,16.708333333333332,266.66666666666663,19C303.7037037037037,21.291666666666668,318.5185185185185,-3.4583333333333335,355.55555555555554,-2C392.5925925925926,-0.5416666666666665,407.40740740740745,27.458333333333332,444.44444444444446,26C481.48148148148147,24.541666666666668,496.29629629629625,-9.416666666666666,533.3333333333333,-9C570.3703703703703,-8.583333333333334,585.1851851851851,24.875,622.2222222222222,28C659.2592592592592,31.125,674.074074074074,5.791666666666667,711.1111111111111,6C748.1481481481482,6.208333333333333,781.4814814814815,24.208333333333332,800,29" transform="matrix(1,0,0,1,0,68)"></path><path d="M10,10C26.435185185185183,10.416666666666666,53.93518518518518,16.791666666666668,88.88888888888889,12C123.84259259259258,7.208333333333333,140.74074074074073,-14.458333333333334,177.77777777777777,-13C214.8148148148148,-11.541666666666666,229.6296296296296,16.708333333333332,266.66666666666663,19C303.7037037037037,21.291666666666668,318.5185185185185,-3.4583333333333335,355.55555555555554,-2C392.5925925925926,-0.5416666666666665,407.40740740740745,27.458333333333332,444.44444444444446,26C481.48148148148147,24.541666666666668,496.29629629629625,-9.416666666666666,533.3333333333333,-9C570.3703703703703,-8.583333333333334,585.1851851851851,24.875,622.2222222222222,28C659.2592592592592,31.125,674.074074074074,5.791666666666667,711.1111111111111,6C748.1481481481482,6.208333333333333,781.4814814814815,24.208333333333332,800,29" transform="matrix(1,0,0,1,0,34)"></path></g></svg>